<?xml version="1.0" encoding="UTF-8" standalone="no"?>
<svg width="150" height="200" viewBox="0 0 150 200" xmlns="http://www.w3.org/2000/svg" version="1.1">
  <defs>
    <!-- Original color palette plus additional elegant blues for logo -->
    <linearGradient id="facet1" x1="0%" y1="0%" x2="100%" y2="100%">
      <stop offset="0%" style="stop-color:#000F3F; stop-opacity:1" />
      <stop offset="100%" style="stop-color:#0014D9; stop-opacity:1" />
    </linearGradient>
    <linearGradient id="facet2" x1="0%" y1="0%" x2="100%" y2="100%">
      <stop offset="0%" style="stop-color:#004F7F; stop-opacity:1" />
      <stop offset="100%" style="stop-color:#0074D9; stop-opacity:1" />
    </linearGradient>

    <linearGradient id="facet3" x1="0%" y1="0%" x2="100%" y2="100%">
      <stop offset="0%" style="stop-color:#0074D9; stop-opacity:1" />
      <stop offset="100%" style="stop-color:#39CCCC; stop-opacity:1" />
    </linearGradient>
    <linearGradient id="facet4" x1="0%" y1="0%" x2="100%" y2="100%">
      <stop offset="0%" style="stop-color:#39CCCC; stop-opacity:1" />
      <stop offset="100%" style="stop-color:#7FDBFF; stop-opacity:1" />
    </linearGradient>
    <linearGradient id="facet5" x1="0%" y1="0%" x2="100%" y2="100%">
      <stop offset="0%" style="stop-color:#7FDBFF; stop-opacity:1" />
      <stop offset="100%" style="stop-color:#E0F4FF; stop-opacity:1" />
    </linearGradient>

    <!-- Additional elegant blues for logo design -->
    <linearGradient id="facet6" x1="20%" y1="30%" x2="80%" y2="70%">
      <stop offset="0%" style="stop-color:#1E3A8A; stop-opacity:1" />
      <stop offset="100%" style="stop-color:#3B82F6; stop-opacity:1" />
    </linearGradient>
    <linearGradient id="facet7" x1="40%" y1="20%" x2="60%" y2="80%">
      <stop offset="0%" style="stop-color:#0369A1; stop-opacity:1" />
      <stop offset="100%" style="stop-color:#0EA5E9; stop-opacity:1" />
    </linearGradient>
    <linearGradient id="facet8" x1="30%" y1="40%" x2="70%" y2="60%">
      <stop offset="0%" style="stop-color:#0891B2; stop-opacity:1" />
      <stop offset="100%" style="stop-color:#06B6D4; stop-opacity:1" />
    </linearGradient>

    <!-- Glow filter for outer crystal -->
    <filter id="outerGlow" x="-50%" y="-50%" width="200%" height="200%">
      <feGaussianBlur stdDeviation="3" result="coloredBlur"/>
      <feMerge>
        <feMergeNode in="coloredBlur"/>
        <feMergeNode in="SourceGraphic"/>
      </feMerge>
    </filter>

    <!-- Brighter glow for core -->
    <filter id="coreGlow" x="-100%" y="-100%" width="300%" height="300%">
      <feGaussianBlur stdDeviation="2" result="coloredBlur"/>
      <feMerge>
        <feMergeNode in="coloredBlur"/>
        <feMergeNode in="SourceGraphic"/>
      </feMerge>
    </filter>
  </defs>

  <!-- Layer 1 - Outermost, lightest (with glow) -->
  <polygon points="75,12 120,44 120,131 75,162 30,131 30,44"
           fill="url(#facet5)"
           filter="url(#outerGlow)"/>

  <!-- Layer 2 - Medium-light (regular spacing) -->
  <polygon points="75,19 115,47 115,128 75,156 35,128 35,47"
           fill="url(#facet4)"/>

  <!-- Layer 3 - Medium blue (regular spacing) -->
  <polygon points="75,25 110,50 110,125 75,150 40,125 40,50"
           fill="url(#facet3)"/>

  <!-- Layer 4 - Medium-dark (thin band - closer spacing) -->
  <polygon points="75,29 107,52 107,123 75,146 43,123 43,52"
           fill="url(#facet2)"/>

  <!-- Layer 5 - Back to medium (thin band - close to layer 4) -->
  <polygon points="75,33 104,54 104,121 75,142 46,121 46,54"
           fill="url(#facet3)"/>

  <!-- Layer 6 - Medium-light (wider band - bigger jump) -->
  <polygon points="75,40 98,57 98,118 75,135 52,118 52,57"
           fill="url(#facet4)"/>

  <!-- Layer 7 - Medium blue (regular spacing) -->
  <polygon points="75,48 92,61 92,114 75,127 58,114 58,61"
           fill="url(#facet6)"/>

  <!-- Layer 8 - Medium-dark (regular spacing) -->
  <polygon points="75,55 86,66 86,109 75,120 64,109 64,66"
           fill="url(#facet3)"/>

  <!-- Layer 9 - Dark band (regular spacing) -->
  <polygon points="75,63 80,70 80,105 75,112 70,105 70,70"
           fill="url(#facet2)"/>

  <!-- Core - Darkest center (with enhanced glow) -->
  <polygon points="75,70 74,75 74,100 75,105 76,100 76,75"
           fill="url(#facet1)"
           filter="url(#coreGlow)"/>


</svg>